<mxfile host="app.diagrams.net" modified="2023-09-03T21:20:27.569Z" agent="Mozilla/5.0 (Windows NT 10.0; Win64; x64) AppleWebKit/537.36 (KHTML, like Gecko) Chrome/116.0.0.0 Safari/537.36 Edg/116.0.1938.62" version="21.7.2" etag="dV9OPZpInRetJ8rucwkY" type="github">
  <diagram name="Page-1" id="MW-buDpMtGzrqtemO_0G">
    <mxGraphModel>
      <root>
        <mxCell id="0" />
        <mxCell id="1" parent="0" />
      </root>
    </mxGraphModel>
  </diagram>
</mxfile>
